<?xml version="1.0" encoding="UTF-8"?><svg id="Layer_2" xmlns="http://www.w3.org/2000/svg" width="1920" height="1080" xmlns:xlink="http://www.w3.org/1999/xlink" viewBox="0 0 1920 1080"><defs><linearGradient id="linear-gradient" x1="395.1" y1="-1308.5" x2="395.1" y2="-993.1" gradientTransform="translate(564 -216.8) scale(1 -1)" gradientUnits="userSpaceOnUse"><stop offset="0" stop-color="#383838"/><stop offset=".4" stop-color="#353535"/><stop offset=".8" stop-color="#2b2b2b"/><stop offset="1" stop-color="#212121"/></linearGradient><linearGradient id="linear-gradient-2" x1="395" y1="81.1" x2="395" y2="-552.5" gradientTransform="translate(564 -216.8) scale(1 -1)" gradientUnits="userSpaceOnUse"><stop offset=".5" stop-color="#383838"/><stop offset="1" stop-color="#212121"/></linearGradient></defs><g id="Layer_1-2"><path d="M1920,0H0v1080h1920V0Z" fill="#212121"/><path d="M51.6,777.1l-33.1,16.5H0v3.4h11.7l-11.7,5.8v3.8l19.3-9.6h97.7l-32.8,18.3H0v3.4h78.2l-36.5,20.4H0v3.4h35.7L0,862.3v6.3h110.1l-40.1,25.7H0v3.4h64.6l-45.3,29H0v3.4h14l-14,8.9v4l20.3-13h128.7l-44,32.9H0v3.4h100.4l-50.3,37.5H0v3.4h45.5L0,1041.2v4.2l51.2-38.2h146.6l-48.2,43.1H0v3.4h145.8l-29.3,26.2h5.1l29.3-26.2h157.6l-23.4,26.2h4.6l23.4-26.2h158.1l-17.6,26.2h4.1l17.6-26.2h158.5l-11.7,26.2h3.7l11.7-26.2h158.8l-5.9,26.2h3.5l5.9-26.2h158.9v26.2h3.4v-26.2h158.9l5.9,26.2h3.5l-5.9-26.2h158.8l11.7,26.2h3.7l-11.7-26.2h158.5l17.6,26.2h4.1l-17.6-26.2h158.1l23.4,26.2h4.6l-23.4-26.2h157.6l29.3,26.2h5.1l-29.3-26.2h143v-3.4h-146.8l-48.2-43.1h146.6l48.4,36.1v-4.2l-42.8-31.9h42.8v-3.4h-47.3l-50.3-37.5h97.7v-3.4h-102.2l-44.1-32.9h128.7l17.6,11.2v-4l-11.3-7.2h11.3v-3.4h-16.6l-45.3-29h61.8v-3.4h-67.2l-40.2-25.7h107.3v-3.4h-112.7l-35.8-22.8h108.5l39.8,22.3v-3.9l-32.9-18.4h32.9v-3.4h-38.9l-36.5-20.4h75.4v-3.4h-81.5l-32.8-18.3h97.7l16.6,8.2v-3.8l-8.9-4.4h8.9v-3.4h-15.8l-33.1-16.5h48.8v-3.2H0c0-.1,0,3.2,0,3.2h51.6v.2ZM1123.5,1050.4l-9.7-43.1h148.4l19.3,43.1h-158ZM1441.9,868.6l23,25.7h-122.4l-17.2-25.7h116.7ZM1322.9,865.2l-15.3-22.8h110.9l20.4,22.8h-116ZM1467.9,897.7l25.9,29h-129.6l-19.4-29h123.1ZM1496.8,930.1l29.4,32.9h-137.7l-22.1-32.9h130.4ZM1472.4,897.7h122.6l32.4,29h-129.1l-25.9-29ZM1469.4,894.3l-23-25.7h116.2l28.7,25.7h-122,.1ZM1443.4,865.2l-20.4-22.8h110.4l25.6,22.8h-115.6ZM1511.8,818.6h104.5l27.4,20.4h-109l-22.8-20.4h0ZM1529.5,839h-109.6l-18.3-20.4h105l22.8,20.4h0ZM1415.4,839h-110.1l-13.7-20.4h105.5l18.3,20.4ZM1301.3,839h-110.5l-9.1-20.4h105.9l13.7,20.4ZM1303.6,842.4l15.3,22.8h-116.4l-10.2-22.8h111.3ZM1321.2,868.6l17.2,25.7h-122.8l-11.5-25.7h117.2ZM1340.6,897.7l19.4,29h-130l-13-29h123.6ZM1362.3,930.1l22.1,32.9h-138.1l-14.7-32.9h130.8,0ZM1386.6,966.3l25.2,37.5h-147.3l-16.8-37.5h138.9ZM1390.7,966.3h138.5l33.6,37.5h-146.9l-25.2-37.5ZM1533.8,966.3h138l41.9,37.5h-146.4l-33.6-37.5ZM1530.7,962.9l-29.4-32.9h129.9l36.8,32.9h-137.3ZM1600.2,897.7h122.2l38.8,29h-128.5l-32.4-29h0ZM1596.4,894.3l-28.7-25.7h115.7l34.5,25.7h-121.5ZM1563.9,865.2l-25.6-22.8h109.8l30.7,22.8h-114.9ZM1621.9,818.6h103.9l32,20.4h-108.4l-27.4-20.4h-.1ZM1617.4,815.2l-24.6-18.3h99l28.7,18.3h-103.1ZM1611.7,815.2h-103.7l-20.5-18.3h99.6l24.6,18.3ZM1502.9,815.2h-104.3l-16.4-18.3h100.2l20.5,18.3ZM1394.2,815.2h-104.8l-12.3-18.3h100.7l16.4,18.3ZM1285.3,815.2h-105.2l-8.2-18.3h101.1l12.3,18.3ZM1176.4,815.2h-105.5l-4.1-18.3h101.4l8.2,18.3ZM1177.9,818.6l9.1,20.4h-110.8l-4.6-20.4h106.3ZM1188.6,842.4l10.2,22.8h-116.7l-5.1-22.8h111.6ZM1200.3,868.6l11.5,25.7h-123.1l-5.7-25.7h117.4ZM1213.3,897.7l13,29h-130.3l-6.5-29h123.8ZM1227.8,930.1l14.7,32.9h-138.4l-7.4-32.9h131.1ZM1243.9,966.3l16.8,37.5h-147.6l-8.4-37.5h139.2ZM1285.3,1050.4l-19.3-43.1h148.1l29,43.1h-157.8ZM1447.1,1050.4l-29-43.1h147.6l38.6,43.1h-157.3.1ZM1765.7,1050.4h-156.8l-38.5-43.1h147.1l48.2,43.1ZM1864.6,1003.9h-145.8l-41.9-37.5h137.4l50.3,37.5ZM1809.7,962.9h-136.7l-36.8-32.9h129.3l44,32.9h0ZM1894.7,926.7h-127.9l-38.8-29h121.4l45.3,29ZM1844.1,894.3h-120.8l-34.5-25.7h115l40.1,25.7h.1ZM1798.7,865.2h-114.3l-30.7-22.8h109.2l35.8,22.8ZM1871.7,839h-107.8l-32-20.4h103.2l36.5,20.4h0ZM1829.1,815.2h-102.5l-28.7-18.3h98.4l32.8,18.3ZM1861.2,777.1l33.1,16.5h-96.9l-29.5-16.5h93.3ZM1760.9,777.1l29.5,16.5h-97.6l-25.8-16.5h93.9ZM1660.7,777.1l25.8,16.5h-98.2l-22.1-16.5h94.6,0ZM1560.6,777.1l22.1,16.5h-98.8l-18.4-16.5h95.2,0ZM1460.3,777.1l18.4,16.5h-99.4l-14.7-16.5h95.7ZM1360,777.1l14.7,16.5h-99.9l-11-16.5h96.2ZM1259.7,777.1l11,16.5h-100.3l-7.4-16.5h96.7ZM1159.4,777.1l7.4,16.5h-100.6l-3.7-16.5h97,0ZM961.9,777.1h97.1l3.7,16.5h-100.8v-16.5ZM961.9,796.9h101.6l4.1,18.3h-105.7v-18.3ZM961.9,818.6h106.4l4.6,20.4h-111v-20.4ZM961.9,842.4h111.7l5.1,22.8h-116.8v-22.8ZM961.9,868.6h117.6l5.7,25.7h-123.3v-25.7h.1ZM961.9,897.7h124l6.5,29h-130.5v-29ZM961.9,930.1h131.3l7.4,32.9h-138.6v-32.9h0ZM961.9,966.3h139.4l8.4,37.5h-147.8v-37.5ZM961.9,1007.3h148.5l9.7,43.1h-158.2v-43.1ZM123.9,796.9h98.4l-28.7,18.3h-102.5l32.8-18.3ZM455.5,894.3l23-25.7h116.7l-17.2,25.7h-122.4ZM575.7,897.7l-19.4,29h-129.6l25.9-29h123.1ZM481.5,865.2l20.4-22.8h110.9l-15.3,22.8h-116ZM477,865.2h-115.5l25.6-22.8h110.4l-20.4,22.8h-.1ZM356.5,865.2h-114.9l30.7-22.8h109.8l-25.6,22.8ZM357.8,868.6h116.2l-23,25.7h-121.9l28.7-25.7h0ZM447.9,897.7l-25.9,29h-129.1l32.4-29h122.6ZM423.6,930.1h130.4l-22.1,32.9h-137.7l29.4-32.9ZM558.1,930.1h130.8l-14.7,32.9h-138.1l22.1-32.9h0ZM560.3,926.7l19.4-29h123.5l-13,29h-130,0ZM582.1,894.3l17.2-25.7h117.1l-11.5,25.7h-122.8,0ZM601.5,865.2l15.3-22.8h111.3l-10.2,22.8h-116.4ZM619.1,839l13.7-20.4h105.9l-9.1,20.4h-110.5ZM615,839h-110.1l18.3-20.4h105.5l-13.7,20.4ZM500.4,839h-109.6l22.8-20.4h105l-18.3,20.4h.1ZM385.8,839h-109l27.4-20.4h104.5l-22.8,20.4h-.1ZM271.1,839h-108.4l32-20.4h103.9l-27.4,20.4h0ZM266.6,842.4l-30.7,22.8h-114.3l35.8-22.8h109.2ZM237,868.6h115.7l-28.7,25.7h-121.3l34.5-25.7h-.1ZM320.2,897.7l-32.4,29h-128.5l38.9-29h122.1,0ZM289.1,930.1h129.9l-29.4,32.9h-137.2l36.8-32.9h-.1ZM386.6,966.3l-33.6,37.5h-146.4l41.9-37.5h138ZM391.1,966.3h138.5l-25.2,37.5h-146.9l33.6-37.5ZM533.7,966.3h138.9l-16.8,37.5h-147.3l25.2-37.5ZM676.4,966.3h139.2l-8.4,37.5h-147.6l16.8-37.5ZM678,962.9l14.7-32.9h131.1l-7.4,32.9h-138.4ZM694.1,926.7l13-29h123.8l-6.5,29h-130.3ZM708.6,894.3l11.5-25.7h117.4l-5.7,25.7h-123.1ZM721.6,865.2l10.2-22.8h111.6l-5.1,22.8h-116.7ZM733.3,839l9.1-20.4h106.3l-4.6,20.4h-110.8ZM744,815.2l8.2-18.3h101.4l-4.1,18.3h-105.5ZM740.2,815.2h-105.2l12.3-18.3h101.1l-8.2,18.3ZM631,815.2h-104.8l16.4-18.3h100.7l-12.3,18.3ZM521.6,815.2h-104.3l20.5-18.3h100.2l-16.4,18.3ZM412.4,815.2h-103.7l24.6-18.3h99.6l-20.5,18.3ZM303,815.2h-103.1l28.7-18.3h99l-24.6,18.3ZM85.2,818.6h103.2l-32,20.4H48.6l36.5-20.4h0ZM1.8,865.2l40.8-22.8h108.5l-35.8,22.8H1.8ZM116.4,868.6h115l-34.5,25.7h-120.7l40.1-25.7h0ZM25.6,926.7l45.3-29h121.4l-38.9,29H25.6ZM154.7,930.1h129.3l-36.8,32.9H110.7l44-32.9ZM55.7,1003.9l50.3-37.5h137.4l-41.9,37.5H55.7ZM311.4,1050.4h-156.8l48.2-43.1h147.1l-38.6,43.1ZM473.3,1050.4h-157.3l38.6-43.1h147.6l-29,43.1h0ZM635.1,1050.4h-157.7l29-43.1h148.1l-19.3,43.1h-.1ZM796.8,1050.4h-158l19.3-43.1h148.4l-9.7,43.1ZM958.5,1050.4h-158.2l9.7-43.1h148.5v43.1ZM958.5,1003.9h-147.8l8.4-37.5h139.4v37.5ZM958.5,962.9h-138.6l7.4-32.9h131.3v32.9h0ZM958.5,926.7h-130.5l6.5-29h124v29ZM958.5,894.3h-123.3l5.7-25.7h117.6v25.7h0ZM958.5,865.2h-116.8l5.1-22.8h111.7v22.8ZM958.5,839h-111l4.6-20.4h106.4v20.4ZM958.5,815.2h-105.7l4.1-18.3h101.6v18.3ZM958.5,777.1v16.5h-100.8l3.7-16.5h97.1ZM857.9,777.1l-3.7,16.5h-100.6l7.4-16.5h97-.1ZM757.3,777.1l-7.4,16.5h-100.3l11-16.5h96.7ZM656.6,777.1l-11,16.5h-99.9l14.7-16.5h96.2ZM555.8,777.1l-14.7,16.5h-99.4l18.4-16.5h95.7ZM455,777.1l-18.4,16.5h-98.8l22.1-16.5h95.2,0ZM354.2,777.1l-22.1,16.5h-98.2l25.8-16.5h94.6-.1ZM253.3,777.1l-25.8,16.5h-97.6l29.5-16.5h93.9ZM152.5,777.1l-29.5,16.5H26.2l33.1-16.5h93.3Z" fill="url(#linear-gradient)"/><path d="M1868.8,313.6l33.1-16.5h15.8v-3.4h-8.9l8.9-4.4v-3.8l-16.6,8.2h-97.7l32.8-18.3h81.5v-3.4h-75.4l36.4-20.4h39v-3.4h-32.9l32.9-18.4v-3.9l-39.9,22.3h-108.5l35.8-22.8h112.7v-3.4h-107.3l40.2-25.7h67.2v-3.4h-61.8l45.3-29h16.6v-3.4h-11.3l11.3-7.2v-4l-17.6,11.2h-128.7l44-32.9h102.2v-3.4h-97.7l50.3-37.5h47.3v-3.4h-42.8l42.8-31.9v-4.2l-48.4,36.1h-146.6l48.2-43.1h146.8v-3.4h-143L1815.7,0h-5.1l-41.2,36.8h-157.6L1644.8,0h-4.6l-32.9,36.8h-158.1l24.7-36.8h-4.1l-24.7,36.8h-158.5l16.6-36.8h-3.7l-16.5,36.8h-158.8l8.2-36.8h-3.5l-8.2,36.8h-158.9V0h-3.4v36.8h-158.9l-8.3-36.8h-3.5l8.2,36.8h-158.8L620.8,0h-3.7l16.5,36.8h-158.5L450.4,0h-4.1l24.7,36.8h-158.1L280,0h-4.6l32.9,36.8h-157.6L109.8,0h-5.1l41.1,36.8H0v3.4h149.6l48.2,43.1H51.2L0,45.2v4.2l45.5,33.9H0v3.4h50l50.3,37.5H0v3.4h105l44,32.9H20.3L0,147.6v4l14,8.9H0v3.4h19.3l45.3,29H0v3.4h69.9l40.1,25.7H0v6.3l35.7,19.9H0v3.4h41.7l36.5,20.4H0v3.4h84.3l32.8,18.3H19.3l-19.3-9.6v3.8l11.7,5.8H0v3.4h18.5l33.1,16.5H0v3.2h1917.6c0,.1,0-3.2,0-3.2h-48.8ZM796.8,40.2l9.7,43.1h-148.4l-19.3-43.1h158ZM481.5,225.4h116l15.3,22.8h-110.9l-20.4-22.8ZM497.4,248.2h-110.4l-25.6-22.8h115.5l20.4,22.8h.1ZM478.5,222l-23-25.7h122.4l17.2,25.7h-116.7ZM452.5,192.9l-25.9-29h129.6l19.4,29h-123.1ZM423.6,160.5l-29.4-32.9h137.7l22.1,32.9h-130.4ZM447.9,192.9h-122.6l-32.4-29h129.1l25.9,29ZM451,196.3l23,25.7h-116.2l-28.7-25.7h121.9-.1ZM382,248.2h-109.8l-30.7-22.8h114.9l25.6,22.8ZM385.8,251.6l22.8,20.4h-104.5l-27.4-20.4h109.1ZM390.8,251.6h109.6l18.3,20.4h-105l-22.8-20.4h0ZM505,251.6h110.1l13.7,20.4h-105.5l-18.3-20.4ZM619.1,251.6h110.5l9.1,20.4h-105.9l-13.7-20.4ZM616.8,248.2l-15.3-22.8h116.4l10.2,22.8h-111.3ZM599.3,222l-17.2-25.7h122.8l11.5,25.7h-117.2ZM579.8,192.9l-19.4-29h130l13,29h-123.6ZM558.1,160.5l-22.1-32.9h138.1l14.7,32.9h-130.8.1ZM533.7,124.3l-25.2-37.5h147.3l16.8,37.5h-138.9ZM529.6,124.3h-138.5l-33.6-37.5h146.9l25.2,37.5ZM386.6,124.3h-138l-41.9-37.5h146.4l33.6,37.5ZM389.6,127.7l29.4,32.9h-129.9l-36.8-32.9h137.3ZM320.2,192.9h-122.1l-38.9-29h128.5l32.4,29h.1ZM324,196.3l28.7,25.7h-115.7l-34.5-25.7h121.4ZM266.6,248.2h-109.2l-35.8-22.8h114.3l30.7,22.8ZM271.1,251.6l27.4,20.4h-103.9l-32-20.4h108.5ZM303,275.4l24.6,18.3h-99l-28.7-18.3h103.1ZM308.7,275.4h103.7l20.5,18.3h-99.6l-24.6-18.3ZM417.5,275.4h104.3l16.4,18.3h-100.2l-20.5-18.3ZM526.2,275.4h104.8l12.3,18.3h-100.7l-16.4-18.3ZM635,275.4h105.2l8.2,18.3h-101.1l-12.3-18.3ZM744,275.4h105.5l4.1,18.3h-101.4l-8.2-18.3ZM742.4,272l-9.1-20.4h110.8l4.6,20.4h-106.3ZM731.8,248.2l-10.2-22.8h116.7l5.1,22.8h-111.6ZM720,222l-11.5-25.7h123.1l5.7,25.7h-117.4ZM707,192.9l-13-29h130.3l6.5,29h-123.8ZM692.6,160.5l-14.7-32.9h138.4l7.4,32.9h-131.1ZM676.4,124.3l-16.8-37.5h147.6l8.4,37.5h-139.2ZM635.1,40.2l19.3,43.1h-148.1l-29-43.1h157.8ZM473.3,40.2l29,43.1h-147.6l-38.6-43.1h157.3-.1ZM154.7,40.2h156.8l38.6,43.1h-147.1l-48.2-43.1ZM55.7,86.7h145.8l41.9,37.5H106.1l-50.3-37.5ZM110.7,127.7h136.7l36.8,32.9h-129.3l-44-32.9h0ZM25.6,163.9h127.9l38.9,29h-121.4l-45.3-29ZM76.2,196.3h120.7l34.5,25.7h-115l-40.1-25.7h0ZM1.8,225.4h113.7l35.8,22.8H42.6L1.8,225.4ZM48.6,251.6h107.8l32,20.4h-103.2l-36.5-20.4h0ZM91.2,275.4h102.5l28.7,18.3h-98.4l-32.8-18.3ZM59.2,313.6l-33.1-16.5h96.9l29.5,16.5H59.2ZM159.4,313.6l-29.5-16.5h97.6l25.8,16.5h-93.9ZM259.6,313.6l-25.8-16.5h98.2l22.1,16.5h-94.6,0ZM359.9,313.6l-22.1-16.5h98.8l18.4,16.5h-95.2.1ZM460,313.6l-18.4-16.5h99.4l14.7,16.5h-95.7ZM560.3,313.6l-14.7-16.5h99.9l11,16.5h-96.2ZM660.7,313.6l-11-16.5h100.3l7.4,16.5h-96.7ZM760.9,313.6l-7.4-16.5h100.6l3.7,16.5h-97,0ZM958.5,313.6h-97.1l-3.7-16.5h100.8v16.5ZM958.5,293.7h-101.6l-4.1-18.3h105.7v18.3ZM958.5,272h-106.4l-4.6-20.4h111v20.4ZM958.5,248.2h-111.7l-5.1-22.8h116.8v22.8ZM958.5,222h-117.6l-5.7-25.7h123.3v25.7h0ZM958.5,192.9h-124l-6.5-29h130.5v29ZM958.5,160.5h-131.3l-7.4-32.9h138.6v32.9h0ZM958.5,124.3h-139.4l-8.4-37.5h147.8v37.5ZM958.5,83.3h-148.5l-9.7-43.1h158.2v43.1ZM1796.5,293.7h-98.4l28.7-18.3h102.5l-32.8,18.3ZM1464.9,196.3l-23,25.7h-116.7l17.2-25.7h122.4ZM1344.7,192.9l19.4-29h129.6l-25.9,29h-123.1ZM1438.8,225.4l-20.4,22.8h-110.9l15.3-22.8h115.9ZM1443.4,225.4h115.5l-25.6,22.8h-110.4l20.4-22.8h0ZM1446.4,222l23-25.7h121.9l-28.7,25.7h-116.3ZM1472.4,192.9l25.9-29h129.1l-32.4,29h-122.6ZM1496.8,160.5h-130.4l22.1-32.9h137.7l-29.4,32.9ZM1362.3,160.5h-130.8l14.7-32.9h138.1l-22.1,32.9h0ZM1360,163.9l-19.4,29h-123.5l13-29h130-.1ZM1338.3,196.3l-17.2,25.7h-117.1l11.5-25.7h122.8,0ZM1318.9,225.4l-15.3,22.8h-111.3l10.2-22.8h116.4ZM1301.3,251.6l-13.7,20.4h-105.9l9.1-20.4h110.5ZM1305.4,251.6h110.1l-18.3,20.4h-105.5l13.7-20.4ZM1419.9,251.6h109.6l-22.8,20.4h-105l18.3-20.4h0ZM1534.6,251.6h109l-27.4,20.4h-104.5l22.8-20.4h0ZM1649.2,251.6h108.4l-32,20.4h-103.9l27.4-20.4h0ZM1648.1,248.2h-109.8l25.6-22.8h114.9l-30.7,22.8ZM1567.7,222l28.7-25.7h121.3l-34.5,25.7h-115.7,0ZM1600.2,192.9l32.4-29h128.5l-38.9,29h-122.1,0ZM1631.3,160.5h-129.9l29.4-32.9h137.2l-36.8,32.9h0ZM1533.8,124.3l33.6-37.5h146.4l-41.9,37.5h-138ZM1529.2,124.3h-138.5l25.2-37.5h146.9l-33.6,37.5ZM1386.6,124.3h-138.9l16.8-37.5h147.3l-25.2,37.5ZM1243.9,124.3h-139.2l8.4-37.5h147.6l-16.8,37.5ZM1242.5,127.7l-14.7,32.9h-131.1l7.4-32.9h138.4ZM1226.3,163.9l-13,29h-123.8l6.5-29h130.3ZM1211.8,196.3l-11.5,25.7h-117.4l5.7-25.7h123.1ZM1198.8,225.4l-10.2,22.8h-111.6l5.1-22.8h116.7ZM1187.1,251.6l-9.1,20.4h-106.3l4.6-20.4h110.8ZM1176.4,275.4l-8.2,18.3h-101.4l4.1-18.3h105.5ZM1180.1,275.4h105.2l-12.3,18.3h-101.1l8.2-18.3ZM1289.4,275.4h104.8l-16.4,18.3h-100.7l12.3-18.3ZM1398.7,275.4h104.3l-20.5,18.3h-100.2l16.4-18.3ZM1508,275.4h103.7l-24.6,18.3h-99.6l20.5-18.3ZM1617.4,275.4h103.1l-28.7,18.3h-99l24.6-18.3ZM1871.7,251.6l-36.5,20.4h-103.2l32-20.4h107.8,0ZM1763,248.2h-109.2l30.7-22.8h114.3l-35.8,22.8ZM1803.9,222h-115l34.5-25.7h120.8l-40.2,25.7h0ZM1894.7,163.9l-45.3,29h-121.4l38.8-29h127.9ZM1765.7,160.5h-129.3l36.8-32.9h136.7l-44.1,32.9h0ZM1864.6,86.7l-50.3,37.5h-137.4l41.9-37.5h145.8ZM1608.9,40.2h156.8l-48.2,43.1h-147.1l38.5-43.1ZM1447.1,40.2h157.3l-38.5,43.1h-147.6l29-43.1h0ZM1285.3,40.2h157.7l-29,43.1h-148.1l19.3-43.1h0ZM1123.5,40.2h158l-19.3,43.1h-148.4l9.7-43.1ZM961.9,40.2h158.2l-9.7,43.1h-148.5v-43.1ZM961.9,86.7h147.8l-8.4,37.5h-139.4v-37.5ZM961.9,127.7h138.6l-7.4,32.9h-131.3v-32.9h.1ZM961.9,163.9h130.5l-6.5,29h-124v-29ZM961.9,196.3h123.3l-5.7,25.7h-117.6v-25.7h0ZM961.9,225.4h116.8l-5.1,22.8h-111.7v-22.8ZM961.9,251.6h111l-4.6,20.4h-106.4v-20.4ZM961.9,275.4h105.7l-4.1,18.3h-101.6v-18.3ZM961.9,313.6v-16.5h100.8l-3.7,16.5h-97.1ZM1062.5,313.6l3.7-16.5h100.6l-7.4,16.5h-97,.1ZM1163,313.6l7.4-16.5h100.3l-11,16.5h-96.7ZM1263.8,313.6l11-16.5h99.9l-14.7,16.5h-96.2ZM1364.6,313.6l14.7-16.5h99.4l-18.4,16.5h-95.7ZM1465.4,313.6l18.4-16.5h98.8l-22.1,16.5h-95.2,0ZM1566.2,313.6l22.1-16.5h98.2l-25.8,16.5h-94.6,0ZM1667,313.6l25.8-16.5h97.6l-29.5,16.5h-93.9ZM1767.9,313.6l29.5-16.5h96.9l-33.1,16.5h-93.3Z" fill="url(#linear-gradient-2)"/></g></svg>