<?xml version="1.0" encoding="UTF-8"?><svg id="Layer_2" xmlns="http://www.w3.org/2000/svg" width="138.9" height="130.6" viewBox="0 0 138.9 130.6"><g id="Layer_1-2"><path d="M67.2,95.7l-9.8-10.3h0c-.5-.6-.8-1.3-.8-2.1v-3.7l-52.7-7.7v54.7c0,2.2,1.8,4,4,4h123.2c2.2,0,4-1.8,4-4v-54.7l-52.7,7.7v3.7c0,.9-.4,1.7-1,2.3l-9.6,10.1c-.6.6-1.4,1-2.3,1s-1.7-.4-2.3-1h0ZM62.7,82.1v-16h13.4v16s-6.7,7-6.7,7l-6.7-7h0ZM39.3,24.8v-7.9C39.4,7.6,46.9,0,56.2,0h26.5c9.3,0,16.8,7.6,16.9,16.9v7.9h-6.2v-7.9c0-5.9-4.8-10.6-10.6-10.6h-26.6c-5.9,0-10.6,4.8-10.6,10.6v7.9h-6.2ZM56.5,73.3L1.3,65.3c-.1,0-.2,0-.3,0-.3,0-.6-.2-.8-.4-.2-.2-.3-.5-.3-.8v-28.8c0-2.2,1.8-3.9,4-3.9h130.9c2.2,0,3.9,1.8,4,3.9v28.8c0,.6-.4,1.1-1,1.1l-55.5,8.1v-10.4c0-.8-.3-1.6-.9-2.2s-1.4-.9-2.2-.9h-19.6c-1.7,0-3.1,1.4-3.1,3.1v10.4Z" fill="#fff" fill-rule="evenodd"/></g></svg>