<?xml version="1.0" encoding="UTF-8"?><svg id="Layer_2" xmlns="http://www.w3.org/2000/svg" width="45.8" height="45.8" viewBox="0 0 45.8 45.8"><g id="Layer_1-2"><path d="M3.8,0C1.7,0,0,1.7,0,3.8v38.2c0,2.1,1.7,3.8,3.8,3.8h38.2c2.1,0,3.8-1.7,3.8-3.8V3.8c0-2.1-1.7-3.8-3.8-3.8H3.8ZM14.1,10.2c0,2.4-1.8,3.9-4,3.9-2,0-3.8-1.6-3.8-3.9,0-2.2,1.7-3.9,3.9-3.8,2.2,0,3.9,1.7,3.9,3.8ZM23.6,17.2h-6.4v21.8h6.8v-.5c0-1,0-1.9,0-2.9,0-2.6,0-5.2,0-7.7,0-.6,0-1.3.2-1.9.6-2.2,2.6-3.7,4.9-3.3,1.4.2,2.4,1.1,2.8,2.4.2.8.4,1.8.4,2.6,0,2.7,0,5.3,0,8,0,.9,0,1.9,0,2.8v.5h6.8v-.5c0-1.2,0-2.3,0-3.5,0-2.9,0-5.8,0-8.6,0-1.3-.1-2.6-.5-3.8-.5-1.9-1.5-3.4-3.1-4.5-1.1-.8-2.4-1.3-3.8-1.4-.2,0-.3,0-.5,0-.7,0-1.4,0-2.1,0-1.9.4-3.7,1.3-5,2.9-.2.2-.3.4-.5.6h0c0,0,0-3,0-3ZM6.8,39h6.8v-21.8h-6.8v21.8Z" fill="#fff" fill-rule="evenodd"/></g></svg>