<?xml version="1.0" encoding="UTF-8"?><svg id="Layer_1" xmlns="http://www.w3.org/2000/svg" width="10.6in" height="2in" viewBox="0 0 764.4 146.9"><path d="M760.9,88.1c-.1-.4-.4-1.5-1.5-2.8,0,0-.8-.9-1.9-1.7-2.6-1.9-8-3.1-12.5-4.3-6.2-1.6-7.7-2.4-14.1-3.8-.8-.2-1.5-.3-2.2-.5h0c-.3,0-.6-.1-.9-.2-1.8-.4-2.8-.8-3.5-1-.2,0-.5-.2-.7-.4-.7-.6-.7-1.4,0-2,.2-.2.5-.3.7-.4.7-.3,2-.9,4.3-1.3h0c.7-.1,1.4-.3,2.2-.5,6.4-1.4,7.9-2.2,14.1-3.8,4.5-1.2,9.9-2.4,12.5-4.3,1.1-.8,1.9-1.7,1.9-1.7,1.1-1.3,1.4-2.4,1.5-2.8.6-2,.9-3,3.4-28.3,0-.7.3-2.6-1.5-3.3-1.5-.5-3.7,0-4.6.3-5,1.3-25.5,6.3-31,9.5-1.1.7-1.9,1.4-1.9,1.4-.2.2-1.2,1.1-1.7,2.4-2.6,5.9-2.3,13.8-2.3,13.8.1,3.3-.8,6.6-.5,9.8,0,.3,0,1.2-.7,2.2-.7,1.2-1.9,1.9-3.4,2,0,0,0,0,0,0-.8.1-1.9.2-3.7.2-.9,0-1.5,0-2.1,0,0,0,0,0,0,0-1.5-.2-2.6-.8-3.4-2-.6-1-.7-1.9-.7-2.2.3-3.3-.6-6.6-.5-9.8,0,0,.3-7.9-2.3-13.8-.6-1.3-1.5-2.2-1.7-2.4,0,0-.8-.7-1.9-1.4-5.5-3.3-26-8.3-31-9.5-1-.2-3.2-.8-4.6-.3-1.8.7-1.6,2.5-1.5,3.3,2.5,25.3,2.8,26.3,3.4,28.3.1.4.4,1.5,1.5,2.8,0,0,.8.9,1.9,1.7,2.6,1.9,8,3.1,12.5,4.3,6.2,1.6,7.7,2.4,14.1,3.8.4,0,.7.2,1,.2.3,0,.6.1.8.2,1.7.4,2.7.8,3.3,1.1.2,0,.4.2.7.4.7.6.7,1.5,0,2.1-.2.2-.4.3-.7.4-.7.3-1.9.9-4.2,1.4-.3,0-.7.2-1.1.2-6.4,1.4-7.9,2.2-14.1,3.8-4.5,1.2-9.9,2.4-12.5,4.3-1.1.8-1.9,1.7-1.9,1.7-1.1,1.3-1.4,2.4-1.5,2.8-.6,2-.9,3-3.4,28.3,0,.7-.3,2.6,1.5,3.3,1.5.5,3.7,0,4.6-.3,5-1.3,25.5-6.3,31-9.5,1.1-.7,1.9-1.4,1.9-1.4.2-.2,1.2-1.1,1.7-2.4,2.6-5.9,2.3-13.8,2.3-13.8-.1-3.3.8-6.6.5-9.8,0-.3,0-1.2.7-2.2.7-1.1,1.8-1.8,3.2-2,.7,0,1.5,0,2.6,0,1.6,0,2.6,0,3.4.2,0,0,0,0,0,0,1.5.2,2.6.8,3.4,2,.6,1,.7,1.9.7,2.2,0,3.1.5,6.7.5,9.8,0,0-.3,7.9,2.3,13.8.6,1.3,1.5,2.2,1.7,2.4,0,0,.8.7,1.9,1.4,5.5,3.3,26,8.3,31,9.5,1,.2,3.2.8,4.6.3,1.8-.7,1.6-2.5,1.5-3.3-2.5-25.3-2.8-26.3-3.4-28.3Z" fill="#9e12cc"/><path d="M17.9,57.4C6.5,57.4,0,49.8,0,39.2,0,19.6,21.3,0,43.5,0h58.7c1,0,1.6.3,1.6,1.1s0,.7-.3,1.1l-2.4,5.4c-.7,1.5-1.8,2.3-3.3,2.3h-39c-7.2,0-11.2,2.8-15.7,13.1l-4,9.2c-2.1,4.7-3.2,8.1-3.2,10.5s2.2,4.8,6.2,4.8h15l11.4-25.8c.7-1.5,1.7-2.3,3.1-2.3h24.1c1.1,0,1.6.4,1.6,1.2s0,.7-.3,1.1l-14.9,33.4c-.7,1.5-1.7,2.3-3.2,2.3H17.9Z" fill="#fff"/><path d="M168.4,57.4c-1.9,0-2.9-.6-3.6-1.7l-17.5-33.8-37.1,25.5h38.2c1.1,0,1.5.4,1.5,1.1s0,.8-.3,1.2l-2.4,5.4c-.7,1.5-1.8,2.3-3.2,2.3h-56.2c-.8,0-1.1-.3-1.1-1s.5-1.2,1.3-1.8L164.5,1.6c1.5-1,2.9-1.6,4.3-1.6h5.5c1.6,0,2.4.6,3,1.6l28.5,52.9c0,.3.2.7.2,1,0,1-.8,1.9-2.7,1.9h-34.9Z" fill="#fff"/><path d="M281.5,57.4c-2.2,0-3.8-.7-4.6-2.3l-14.1-26.7c-.3-.5-.6-.9-.6-1.6s.2-.8.5-1.5l.9-1.9c.7-1.4,1.7-2.2,3.2-2.2h11.4c7.3,0,11.1-3.5,11.1-7.6s-1.9-3.8-6.1-3.8h-18.8l-20.2,45.3c-.7,1.5-1.7,2.3-3.2,2.3h-28.9c-1,0-1.6-.3-1.6-1s0-.8.3-1.3L234.7,2.2c.7-1.4,1.7-2.2,3.2-2.2h73.6c7.8,0,12.6,4.1,12.6,10.2,0,11-11.4,19-25.1,20.7l12.7,23.8c0,.2.2.5.2.8,0,.9-.9,1.9-2.3,1.9h-28.1Z" fill="#fff"/><path d="M338.4,57.4c-11.4,0-17.9-7.6-17.9-18.2C320.4,19.6,341.7,0,363.9,0h57.3c1,0,1.5.3,1.5,1.1s0,.7-.3,1.1l-2.4,5.4c-.7,1.5-1.8,2.3-3.3,2.3h-37.6c-7.2,0-11.2,2.8-15.7,13.1l-4,9.2c-2.1,4.7-3.2,8.1-3.2,10.5s2.2,4.8,6.2,4.8h38c1.1,0,1.5.4,1.5,1.1s0,.8-.3,1.2l-2.4,5.4c-.7,1.5-1.8,2.3-3.2,2.3h-57.7Z" fill="#fff"/><path d="M407.7,57.4c-1,0-1.5-.3-1.5-1s0-.8.3-1.3l23.7-53c.7-1.4,1.8-2.2,3.2-2.2h29c1.1,0,1.6.3,1.6,1.1s0,.7-.3,1.1l-23.6,53c-.7,1.5-1.8,2.3-3.2,2.3h-29Z" fill="#fff"/><path d="M526.3,57.4c-1.9,0-2.9-.6-3.6-1.7l-17.5-33.8-37.1,25.5h38.2c1.1,0,1.5.4,1.5,1.1s0,.8-.3,1.2l-2.4,5.4c-.7,1.5-1.8,2.3-3.2,2.3h-56.2c-.8,0-1.1-.3-1.1-1s.5-1.2,1.3-1.8L522.4,1.6c1.5-1,2.9-1.6,4.3-1.6h5.5c1.6,0,2.4.6,3,1.6l28.5,52.9c0,.3.2.7.2,1,0,1-.8,1.9-2.7,1.9h-34.9Z" fill="#fff"/><path d="M36.9,146.9c-1,0-1.5-.3-1.5-1s0-.8.3-1.3l23.7-53c.7-1.4,1.7-2.2,3.2-2.2h67.7c11.8,0,18,7.6,18,17.9,0,20.5-22.4,39.5-43.6,39.5H36.9ZM110.1,112.5c1.8-4,2.7-6.9,2.7-8.8,0-3.2-2.3-4.3-6.6-4.3h-17.1l-16.7,37.6h17c6.7,0,11.4-4,16.6-15.3l4-9.2Z" fill="#fff"/><path d="M167.3,146.9c-11.4,0-17.9-7.6-17.9-18.2,0-19.6,21.3-39.2,43.5-39.2h58.8c1,0,1.5.3,1.5,1.1s0,.7-.3,1.1l-2.4,5.4c-.7,1.5-1.8,2.3-3.3,2.3h-39.1c-7.2,0-11.2,2.8-15.7,13.1l-4,9.2c-2.1,4.7-3.2,8.1-3.2,10.5s2.2,4.8,6.2,4.8h39.5c1,0,1.5.4,1.5,1.1s0,.8-.3,1.2l-2.4,5.4c-.7,1.5-1.8,2.3-3.3,2.3h-59.1ZM197.1,120.6c-1,0-1.5-.3-1.5-1s0-.8.3-1.2l2.4-5.5c.7-1.4,1.8-2.2,3.3-2.2h40.2c1.2,0,1.8.3,1.8.8s0,.4-.2.7l-3.1,6.8c-.4,1-1.4,1.5-2.9,1.5h-40.2Z" fill="#fff"/><path d="M237.1,146.9c-1,0-1.5-.3-1.5-1s0-.8.3-1.3l2.4-5.4c.7-1.5,1.8-2.3,3.3-2.3h48.1l-31.2-18c-5-2.9-6.6-6.4-6.6-9.8,0-9.5,10.4-19.7,24.4-19.7h62c1.1,0,1.6.3,1.6,1.1s0,.7-.3,1.1l-2.4,5.4c-.7,1.5-1.9,2.3-3.3,2.3h-46.6l31.2,18c5.1,2.9,6.6,6.6,6.6,9.8,0,9.5-10.3,19.7-24.4,19.7h-63.6Z" fill="#fff"/><path d="M326.4,146.9c-1,0-1.5-.3-1.5-1s0-.8.3-1.3l23.7-53c.7-1.4,1.8-2.2,3.2-2.2h29c1.1,0,1.6.3,1.6,1.1s0,.7-.3,1.1l-23.6,53c-.7,1.5-1.8,2.3-3.2,2.3h-29Z" fill="#fff"/><path d="M393.1,146.9c-11.4,0-17.9-7.6-17.9-18.2,0-19.6,21.3-39.2,43.5-39.2h58.7c1,0,1.6.3,1.6,1.1s0,.7-.3,1.1l-2.4,5.4c-.7,1.5-1.8,2.3-3.3,2.3h-39c-7.2,0-11.2,2.8-15.7,13.1l-4,9.2c-2.1,4.7-3.2,8.1-3.2,10.5s2.2,4.8,6.2,4.8h15l11.4-25.8c.7-1.5,1.7-2.3,3.1-2.3h24.1c1.1,0,1.6.4,1.6,1.2s0,.7-.3,1.1l-14.9,33.4c-.7,1.5-1.7,2.3-3.2,2.3h-60.9Z" fill="#fff"/><path d="M557.6,146.9c-3.4,0-5.3-.3-8.3-1.7l-56.4-26.1-11.3,25.5c-.7,1.5-1.7,2.3-3.2,2.3h-10.9c-1.1,0-1.6-.3-1.6-1s0-.8.3-1.3l23.6-53c.7-1.4,1.8-2.2,3.3-2.2h9.6c3.7,0,5.3.2,8.2,1.6l52.3,25,10.9-24.4c.7-1.4,1.7-2.2,3.2-2.2h10.9c1,0,1.6.3,1.6,1.1s0,.7-.3,1.1l-23.6,53c-.7,1.5-1.8,2.3-3.3,2.3h-5.1Z" fill="#fff"/><path d="M630,71.9c-205.8-3.8-414.8-3.9-620.6.5,205.8,4.4,414.8,4.3,620.6.5l20-.5s-20-.5-20-.5Z" fill="#fff"/></svg>