<?xml version="1.0" encoding="UTF-8"?><svg id="Layer_2" xmlns="http://www.w3.org/2000/svg" width="147.7" height="144" viewBox="0 0 147.7 144"><g id="Layer_1-2"><path d="M145.7,16.1c-1.3-3.2-3.2-6.1-5.7-8.5-2.4-2.4-5.3-4.4-8.5-5.7C128.4.7,125,0,121.5,0H26.2c-3.4,0-6.8.7-10,2-3.2,1.3-6.1,3.2-8.5,5.7-2.4,2.4-4.4,5.3-5.7,8.5C.7,19.3,0,22.7,0,26.2v91.7c0,3.4.7,6.8,2,10,1.3,3.2,3.2,6.1,5.7,8.5,2.4,2.4,5.3,4.4,8.5,5.7,3.2,1.3,6.6,2,10,2h95.4c3.4,0,6.8-.7,10-2,3.2-1.3,6.1-3.2,8.5-5.7,2.4-2.4,4.4-5.3,5.7-8.5,1.3-3.2,2-6.6,2-10V26.2c0-3.4-.7-6.8-2-10ZM76.1,71.7c-2.5,3.4-5.9,6.1-9.9,7.5-4.2,1.5-8.8,2.1-13.8,2.1s-2.5,0-3.1,0c-.6,0-1.5,0-2.6,0v19.8c0,.1,0,.2,0,.3,0,0,0,.2-.1.3,0,0-.1.1-.2.2,0,0-.2,0-.3,0h-11.9c-.5,0-.7-.2-.7-.8v-63.3c0-.4.2-.7.6-.7,1,0,2,0,3.4,0,1.4,0,3,0,4.7-.1,1.7,0,3.4,0,5.4-.1,1.9,0,3.8,0,5.6,0,5,0,9.2.6,12.7,1.9,3.1,1,5.9,2.8,8.2,5,2,2,3.5,4.4,4.5,7,.9,2.6,1.4,5.3,1.4,8,0,5.3-1.2,9.7-3.7,13.1ZM119.7,95.6c-1.7,2.5-4.1,4.4-6.9,5.5-3,1.3-6.7,2-11.1,2-2.8,0-5.6-.3-8.4-.8-2.2-.4-4.3-1-6.3-2-.2-.1-.4-.3-.5-.5-.1-.2-.2-.4-.2-.7v-10.7c0-.1,0-.2,0-.3,0,0,.1-.2.2-.2,0,0,.2,0,.3,0,0,0,.2,0,.3.1,2.4,1.4,4.9,2.4,7.6,3,2.4.6,4.8.9,7.3.9,2.3,0,4-.3,5.1-.9.5-.2.9-.6,1.2-1.1.3-.5.5-1,.5-1.5,0-.9-.5-1.7-1.5-2.5-1-.8-3-1.7-6-2.9-3.1-1.1-6-2.6-8.7-4.4-1.9-1.4-3.5-3.2-4.7-5.2-1-1.9-1.5-4.1-1.4-6.3,0-2.6.7-5.2,2.1-7.4,1.6-2.5,3.8-4.4,6.5-5.7,2.9-1.5,6.5-2.2,10.9-2.2,2.6,0,5.1.2,7.6.6,1.8.2,3.6.7,5.3,1.4.3,0,.5.3.6.6,0,.2.1.5.1.7v10c0,.1,0,.2,0,.3,0,.1-.1.2-.2.3-.4.1-.7.1-1.1,0-1.9-1-3.8-1.7-5.9-2.1-2.3-.5-4.6-.8-6.9-.8-1.2,0-2.5.1-3.7.4-.8.2-1.4.6-1.9,1.2-.3.5-.5,1.1-.5,1.7,0,.6.2,1.1.6,1.6.6.7,1.3,1.2,2.1,1.7,1.4.7,2.9,1.4,4.4,2,3.3,1.1,6.5,2.6,9.5,4.5,2,1.3,3.7,3,4.9,5.1,1,2,1.5,4.1,1.4,6.3,0,2.9-.8,5.8-2.4,8.2Z" fill="#fff"/><path d="M60.6,50c-2.3-.9-4.8-1.3-7.3-1.2-1.6,0-3,0-4.2,0-.8,0-1.7,0-2.5,0v20.7c.9,0,1.7.1,2.4.1h3.3c2.4,0,4.8-.4,7.1-1.1,2-.6,3.7-1.7,5-3.3,1.3-1.5,1.9-3.6,1.9-6.3,0-1.9-.4-3.8-1.4-5.5-1-1.6-2.5-2.8-4.3-3.5Z" fill="#fff"/></g></svg>