<?xml version="1.0" encoding="UTF-8"?><svg id="Layer_2" xmlns="http://www.w3.org/2000/svg" width="115.8" height="148.2" viewBox="0 0 115.8 148.2"><g id="Layer_1-2"><path d="M94.3,108.1l15.4,26.6-15.3-4.1c-.8-.2-1.7-.1-2.5.3-.7.4-1.3,1.1-1.5,2l-4.1,15.3-17.4-30.1c1.7-1.5,3.1-3.5,4.1-5.7v-.2c2.2-4.9,7.8-7.2,12.8-5.2h.2c2.8,1.2,5.6,1.5,8.4,1.1h0ZM42.9,112.5s0,0,0,0v-.2c-2.2-4.9-7.8-7.2-12.7-5.2h-.3c-2.7,1.2-5.6,1.5-8.4,1.1l-15.4,26.6,15.3-4.1c1.7-.5,3.5.6,4,2.3l4.1,15.3,17.4-30.1c-1.7-1.5-3.1-3.4-4-5.7h0ZM115.8,57.9c0,4-2.2,7.4-5.9,9h-.2c0,.1,0,.1,0,.1-8.1,3.5-11.9,12.8-8.7,21v.3c1.6,3.8.8,7.7-2.1,10.6-1.2,1.2-2.5,2-4,2.5,0,0,0,0,0,0-2.1.7-4.4.6-6.6-.3h-.2c-8.2-3.3-17.5.5-21,8.6v.2c-1.7,3.7-5.1,5.9-9.1,5.9h0c-4,0-7.4-2.2-9-5.9v-.2c-.1,0-.1,0-.1,0-3.5-8.1-12.7-11.9-21-8.7h-.3c-2.2,1-4.5,1-6.6.4h0c-1.4-.5-2.8-1.3-4-2.5-2.9-2.9-3.7-6.8-2.2-10.6v-.2c3.3-8.2-.5-17.5-8.6-21,0,0,0,0,0,0h-.2c-3.7-1.7-5.9-5.1-5.9-9.1s2.2-7.4,5.9-9c0,0,0,0,0,0h.2c8.1-3.6,11.9-12.8,8.7-21v-.3c-1.6-3.8-.8-7.7,2.1-10.6,2.9-2.9,6.8-3.7,10.5-2.2h.2c0,.1,0,.1,0,.1,8.2,3.2,17.5-.6,21-8.7v-.2c1.7-3.7,5.1-5.9,9.1-5.9s7.4,2.2,9,5.9v.3c2.8,6.2,8.7,9.9,15.1,9.9s4-.4,6-1.2c0,0,0,0,0,0h.2c3.8-1.5,7.7-.7,10.5,2.1,2.9,2.9,3.7,6.8,2.2,10.6v.2c-3.3,8.2.5,17.4,8.6,21h.2c0,.1,0,.1,0,.1,3.7,1.6,5.9,5,5.9,9h0ZM92.2,57.9c0-18.9-15.4-34.3-34.3-34.3s-34.3,15.4-34.3,34.3,15.4,34.3,34.3,34.3,34.3-15.4,34.3-34.3ZM85.7,57.9c0,15.4-12.5,27.8-27.8,27.8s-27.8-12.5-27.8-27.8,12.5-27.8,27.8-27.8c15.4,0,27.8,12.5,27.8,27.8ZM73.3,46.1c-1.3-1.2-3.4-1.2-4.6.1l-15.3,16.2-6.2-7.3c-1.2-1.4-3.2-1.5-4.6-.4-1.4,1.2-1.5,3.2-.4,4.6l8.5,10.1c.6.7,1.5,1.1,2.4,1.1,0,0,0,0,0,0,.9,0,1.8-.4,2.4-1l17.7-18.8c1.2-1.3,1.2-3.4-.1-4.6h0Z" fill="#fff"/></g></svg>