<?xml version="1.0" encoding="UTF-8"?><svg id="Layer_1" xmlns="http://www.w3.org/2000/svg" width="4in" height="3.8in" viewBox="0 0 290.8 273.1"><path d="M280.9,181.7c-.3-1.2-1.2-4.3-4.4-8,0,0-2.2-2.5-5.4-4.8-7.6-5.4-22.9-9-35.9-12.4-17.7-4.7-22.1-6.9-40.5-11-2.4-.5-4.4-1-6.3-1.3h.2c-.9-.2-1.7-.3-2.4-.5-5-1-8.2-2.2-9.9-3-.6-.3-1.3-.6-2-1.1-2.1-1.7-2-4,0-5.7.6-.6,1.3-.9,1.9-1.2,1.9-.9,5.7-2.5,12.4-3.8h0c1.9-.4,4-.8,6.3-1.3,18.4-4.1,22.7-6.3,40.5-11,13-3.5,28.3-7,35.9-12.4,3.2-2.3,5.4-4.8,5.4-4.8,3.2-3.6,4-6.8,4.4-8,1.6-5.8,2.4-8.7,9.7-81.3.2-2.1.8-7.6-4.4-9.4-4.3-1.5-10.5,0-13.3.7-14.4,3.6-73.2,18-89,27.3-3.2,1.9-5.4,3.9-5.4,3.9-.6.5-3.3,3.1-5,6.8-7.4,16.9-6.7,39.7-6.7,39.7.3,9.4-2.4,18.8-1.5,28.3,0,.8-.1,3.3-2,6.2-2.1,3.4-5.5,5.3-9.7,5.8,0,0,0,0,0,0-2.3.4-5.4.6-10.7.5-2.5,0-4.4,0-6-.1,0,0,0,0,0,0-4.2-.5-7.5-2.4-9.7-5.8-1.8-2.9-2-5.4-2-6.2.9-9.4-1.8-18.8-1.5-28.3,0,0,.8-22.8-6.7-39.7-1.6-3.7-4.4-6.3-5-6.8,0,0-2.2-2-5.4-3.9C91.1,19.8,32.3,5.4,17.9,1.8c-2.8-.7-9.1-2.3-13.3-.7C-.7,2.9,0,8.4.1,10.5c7.3,72.7,8.1,75.6,9.7,81.3.3,1.2,1.2,4.3,4.4,8,0,0,2.2,2.5,5.4,4.8,7.6,5.4,22.9,9,35.9,12.4,17.7,4.7,22.1,6.9,40.5,11,1.1.2,2,.5,3,.7.8.2,1.6.3,2.4.5,4.8,1.1,7.8,2.3,9.6,3.1.6.3,1.3.6,1.9,1.2,2,1.7,1.9,4.2,0,5.9-.6.6-1.3,1-1.9,1.3-1.9,1-5.5,2.6-11.9,3.9-1,.2-2,.4-3.1.7-18.4,4.1-22.7,6.3-40.5,11-13,3.5-28.3,7-35.9,12.4-3.2,2.3-5.4,4.8-5.4,4.8-3.2,3.6-4,6.8-4.4,8-1.6,5.8-2.4,8.7-9.7,81.3-.2,2.1-.8,7.6,4.4,9.4,4.3,1.5,10.5,0,13.3-.7,14.4-3.6,73.2-18,89-27.3,3.2-1.9,5.4-3.9,5.4-3.9.6-.5,3.3-3.1,5-6.8,7.4-16.9,6.7-39.7,6.7-39.7-.3-9.4,2.4-18.8,1.5-28.3,0-.8.1-3.3,2-6.2,2.1-3.3,5.3-5.2,9.3-5.7,1.9-.1,4.2-.2,7.4-.2,4.7,0,7.5.1,9.7.5,0,0,0,0,0,0,4.2.5,7.5,2.4,9.7,5.8,1.8,2.9,2,5.4,2,6.2,0,8.8,1.3,19.4,1.5,28.3,0,0-.8,22.8,6.7,39.7,1.6,3.7,4.4,6.3,5,6.8,0,0,2.2,2,5.4,3.9,15.8,9.4,74.6,23.7,89,27.3,2.8.7,9.1,2.3,13.3.7,5.2-1.9,4.6-7.3,4.4-9.4-7.3-72.7-8.1-75.6-9.7-81.3Z" fill="#9e12cc"/></svg>