<?xml version="1.0" encoding="UTF-8"?><svg id="Layer_2" xmlns="http://www.w3.org/2000/svg" width="147.7" height="144" viewBox="0 0 147.7 144"><g id="Layer_1-2"><path d="M118.2,0H29.5C13.2,0,0,13.2,0,29.5v85.1c0,16.3,13.2,29.5,29.5,29.5h88.7c16.3,0,29.5-13.2,29.5-29.5V29.5c0-16.3-13.2-29.5-29.5-29.5ZM87.4,112.2h-32.5c-4.6,0-9.1-.9-13.4-2.7-4.2-1.8-8-4.5-11.1-7.9-6.1-6.4-9.5-14.9-9.6-23.8,0-16.4,13-34.1,34.1-34.1,1.3,0,2.6,0,3.9.2,7-7.4,17.9-12,28.6-12,5.4,0,10.8,1.1,15.8,3.2,5,2.2,9.5,5.3,13.2,9.3,7,7.5,10.9,17.3,11,27.5,0,22.2-17.9,40.3-40,40.3Z" fill="#fff"/><path d="M57,96.2h0c0,0-2.3,0-2.3,0-10,0-18.4-8.4-18.4-18.3,0-3.4,1-6.8,2.9-9.7,1.9-2.9,4.5-5.2,7.7-6.6,3.1-1.4,6.6-1.9,10-1.5,3.4.5,6.6,1.9,9.2,4.2l11.6,11.9c.9.9,2.2,1.5,3.5,1.5,1.3,0,2.6-.5,3.5-1.4,1-.9,1.5-2.2,1.5-3.5,0-1.3-.5-2.6-1.4-3.6l-11.7-12h-.1c-3.4-3.2-7.5-5.3-12-6.4-4.4-1.1-9.1-1.1-13.5,0-4.4,1.1-8.6,3.3-12,6.3-3.4,3-6.1,6.9-7.7,11.2-1.6,4.3-2.2,8.9-1.6,13.4.6,4.5,2.2,8.9,4.8,12.6s6.1,6.8,10.2,8.9c4.1,2.1,8.6,3.2,13.2,3.2h15.2s-9.2-5.6-12.6-10.2Z" fill="#fff"/><path d="M87.9,37.5c-8.7,0-16.6,2.9-23,8.8h0c.2,0,.6.2.9.3,1.2.5,3.4,1.6,4.1,1.9.7.4,1.5.8,2.3,1.3,1.2.8,2.4,1.5,2.4,1.5,4.1-2.9,8.3-3.9,13.4-3.9s12.6,2.5,17.1,7.1c4.5,4.5,7.1,10.7,7.1,17.1,0,6.5-2.5,12.7-7.1,17.4-2.2,2.3-4.8,4.2-7.7,5.4-2.9,1.3-6.1,1.9-9.3,1.9-6,0-12.3-2.8-17.2-7.7l-15.4-15.4c-.5-.5-1-.9-1.6-1.1-.6-.3-1.3-.4-2-.4-1,0-2,.3-2.8.9-.8.6-1.5,1.3-1.8,2.2-.4.9-.5,1.9-.3,2.9.2,1,.7,1.9,1.3,2.6l15.5,15.5c6.8,6.7,15.6,10.6,24.3,10.6,4.5,0,9-.9,13.1-2.7,4.2-1.8,7.9-4.4,11-7.6h0c6.4-6.6,10-15.4,9.9-24.5,0-9.1-3.6-17.8-10-24.2-6.4-6.4-15.1-10-24.2-10Z" fill="#fff"/></g></svg>