<?xml version="1.0" encoding="UTF-8"?><svg id="Layer_2" xmlns="http://www.w3.org/2000/svg" width="147.7" height="144" viewBox="0 0 147.7 144"><g id="Layer_1-2"><path d="M145.7,16.1c-1.3-3.2-3.2-6.1-5.7-8.5-2.4-2.4-5.3-4.4-8.5-5.7C128.4.7,125,0,121.5,0H26.2c-3.4,0-6.8.7-10,2-3.2,1.3-6.1,3.2-8.5,5.7-2.4,2.4-4.4,5.3-5.7,8.5C.7,19.3,0,22.7,0,26.2v91.7c0,3.4.7,6.8,2,10,1.3,3.2,3.2,6.1,5.7,8.5,2.4,2.4,5.3,4.4,8.5,5.7,3.2,1.3,6.6,2,10,2h95.4c3.4,0,6.8-.7,10-2,3.2-1.3,6.1-3.2,8.5-5.7,2.4-2.4,4.4-5.3,5.7-8.5,1.3-3.2,2-6.6,2-10V26.2c0-3.4-.7-6.8-2-10ZM108,72c0,10.3-8.4,18.8-18.8,18.8s-8.7-1.6-12-4.4v16.4c0,10.3-8.4,18.8-18.8,18.8s-18.8-8.4-18.8-18.8,3.2-12,8-15.4c-4.9-3.4-8-9-8-15.4s3.2-12,8-15.4c-4.9-3.4-8-9-8-15.4,0-10.3,8.4-18.8,18.8-18.8h30.8c10.3,0,18.8,8.4,18.8,18.8s-3.2,12-8,15.4c4.9,3.4,8,9,8,15.4Z" fill="#fff"/><path d="M0,0v144h147.7V0H0ZM108,72c0,10.3-8.4,18.8-18.8,18.8s-8.7-1.6-12-4.4v16.4c0,10.3-8.4,18.8-18.8,18.8s-18.8-8.4-18.8-18.8,3.2-12,8-15.4c-4.9-3.4-8-9-8-15.4s3.2-12,8-15.4c-4.9-3.4-8-9-8-15.4,0-10.3,8.4-18.8,18.8-18.8h30.8c10.3,0,18.8,8.4,18.8,18.8s-3.2,12-8,15.4c4.9,3.4,8,9,8,15.4Z" fill="none"/><path d="M100,56.6c4.9-3.4,8-9,8-15.4,0-10.3-8.4-18.8-18.8-18.8h-30.8c-10.3,0-18.8,8.4-18.8,18.8s3.2,12,8,15.4c-4.9,3.4-8,9-8,15.4s3.2,12,8,15.4c-4.9,3.4-8,9-8,15.4,0,10.3,8.4,18.8,18.8,18.8s18.8-8.4,18.8-18.8v-16.4c3.3,2.7,7.4,4.4,12,4.4,10.3,0,18.8-8.4,18.8-18.8s-3.2-12-8-15.4Z" fill="none"/><path d="M101.3,41.2c0-6.6-5.4-12-12-12h-12v24h12c6.6,0,12-5.4,12-12Z" fill="#fff"/><path d="M46.5,41.2c0,6.6,5.4,12,12,12h12v-24h-12c-6.6,0-12,5.4-12,12Z" fill="#fff"/><path d="M46.5,72c0,6.6,5.4,12,12,12h12v-24h-12c-6.6,0-12,5.4-12,12Z" fill="#fff"/><path d="M46.5,102.8c0,6.6,5.4,12,12,12s12-5.4,12-12v-12h-12c-6.6,0-12,5.4-12,12Z" fill="#fff"/><path d="M89.3,60c-6.6,0-12,5.4-12,12s5.4,12,12,12,12-5.4,12-12-5.4-12-12-12Z" fill="#fff"/></g></svg>