<?xml version="1.0" encoding="UTF-8"?><svg id="Layer_2" xmlns="http://www.w3.org/2000/svg" width="110.5" height="58.8" viewBox="0 0 110.5 58.8"><g id="Layer_1-2"><path d="M81.5,33c-8.5,1.8-9.7,10.4-10,11.3.1-.4.9-2.4,5.5-4.4,7.6-3.5,15.3,3,15.3,3-7.2,4-12.7,5.7-19.7,5-7.1-.8-7.3-17-7.7-28.7-.4-11.7-1.8-11-1.8-11,0,0-3-2.4-6.7,21.9-3.9,25.3-29.5,27.2-29.5,27.2,15.3,2.3,24.6-3.8,28.6-11.4,3.9-7.5,6.4-24.1,6.4-24.1,0,22.6,2,28.2,7.9,30.9,5.9,2.6,17.3-1.1,25.5-4.1,5.2-1.9,11.4-1.1,11.4-1.1l4.1-4.4s-6.1-2.4-10.8-4.2c-4.7-1.9-11.7-7.2-18.2-5.8Z" fill="#fff"/><path d="M31.4,45.9c.4-4.1-1.2-24.1-1.2-29.4s2-8.3,2-8.3c0-2.3-4.7-8.3-4.7-8.3-1.7,1.3-3.5,6-3.5,6,0,0,7.8,37.3,2.7,41.8-5.1,4.5-14.9,6.2-20.8,2.4-5.9-3.8,0-16.7,0-16.7C2.4,37.7-.4,42.6,0,47.8c.4,5.3,4.3,10.5,13.7,10.9,9.4.4,17.2-8.4,17.7-12.8Z" fill="#fff"/><path d="M43.2,27.9c4.3,3,6.7,12.4,6.7,12.4,2.4-21.1-16.9-27.1-16.9-27.1,0,0-1.1,1.5.8,6.8,2.1,5.7,5.1,4.8,9.4,7.9Z" fill="#fff"/></g></svg>