<?xml version="1.0" encoding="UTF-8"?><svg id="Layer_2" xmlns="http://www.w3.org/2000/svg" width="147.7" height="144" viewBox="0 0 147.7 144"><g id="Layer_1-2"><path d="M145.7,16.1c-1.3-3.2-3.2-6.1-5.7-8.5-2.4-2.4-5.3-4.4-8.5-5.7C128.4.7,125,0,121.5,0H26.2c-3.4,0-6.8.7-10,2-3.2,1.3-6.1,3.2-8.5,5.7-2.4,2.4-4.4,5.3-5.7,8.5C.7,19.3,0,22.7,0,26.2v91.7c0,3.4.7,6.8,2,10,1.3,3.2,3.2,6.1,5.7,8.5,2.4,2.4,5.3,4.4,8.5,5.7,3.2,1.3,6.6,2,10,2h95.4c3.4,0,6.8-.7,10-2,3.2-1.3,6.1-3.2,8.5-5.7,2.4-2.4,4.4-5.3,5.7-8.5,1.3-3.2,2-6.6,2-10V26.2c0-3.4-.7-6.8-2-10ZM90.5,101.7h-12.9c-.2,0-.4,0-.6-.2-.2-.1-.3-.3-.4-.5l-5-14.6h-22.9l-4.7,14.5c0,.3-.2.5-.4.7-.2.2-.5.2-.8.2h-11.6c-.7,0-.9-.4-.7-1.1l19.8-57c.2-.6.4-1.3.6-2,.2-1.3.4-2.7.4-4,0-.2,0-.3.1-.4,0-.1.2-.2.4-.2h15.9c.5,0,.7.2.8.5l22.5,63.4c.2.7,0,1-.6,1ZM111.4,100.8c0,.7-.2,1-.8,1h-12.1c-.1,0-.3,0-.4,0-.1,0-.2-.1-.3-.2,0,0-.2-.2-.2-.3,0-.1,0-.3,0-.4v-47.4c0-.6.2-.9.8-.9h12.2c.6,0,.8.3.8.9v47.4ZM111.7,42.6c-.4,1-.9,1.9-1.6,2.6-.7.7-1.6,1.3-2.6,1.7-1,.4-2,.5-3,.5-1,0-2-.2-3-.5-.9-.4-1.8-.9-2.5-1.6-1.4-1.5-2.2-3.6-2.1-5.7,0-1,.1-2,.5-3s1-1.8,1.7-2.5c1.5-1.4,3.4-2.2,5.5-2.2,2.4,0,4.2.7,5.6,2.2,1.4,1.5,2.1,3.5,2,5.5,0,1-.1,2.1-.5,3Z" fill="#fff"/><path d="M64.8,64.2c-.6-1.8-1.2-3.8-1.8-5.7-.6-1.9-1.2-3.7-1.7-5.5s-.9-3.3-1.4-4.8h-.1c-.6,2.7-1.3,5.3-2.1,7.9-.9,3-1.8,6-2.8,9.1-.9,3.1-1.8,6-2.7,8.6h15.6c-.4-1.3-.9-2.8-1.4-4.4-.6-1.6-1.1-3.4-1.7-5.3Z" fill="#fff"/></g></svg>