<?xml version="1.0" encoding="UTF-8"?><svg id="Layer_2" xmlns="http://www.w3.org/2000/svg" width="133.5" height="140.5" viewBox="0 0 133.5 140.5"><g id="Layer_1-2"><path d="M57.4,48.1c-8.2,2.7-14,10-15,18.5-.3,2.4,1.5,4.6,3.9,4.9.2,0,.3,0,.5,0,2.2,0,4.1-1.7,4.4-3.9.6-5.1,4.1-9.5,9-11.1,2.3-.8,3.5-3.2,2.8-5.6-.8-2.3-3.2-3.5-5.6-2.8h0Z" fill="#fff"/><path d="M129.1,62.4h-12.6c-2.4,0-4.4,2-4.4,4.4s2,4.4,4.4,4.4h12.6c2.4,0,4.4-2,4.4-4.4s-2-4.4-4.4-4.4Z" fill="#fff"/><path d="M15.1,62.4H4.4c-2.4,0-4.4,2-4.4,4.4s2,4.4,4.4,4.4h10.7c2.4,0,4.4-2,4.4-4.4s-2-4.4-4.4-4.4Z" fill="#fff"/><path d="M105,98.8c-1.7-1.7-4.5-1.7-6.2,0s-1.7,4.5,0,6.2l9,9c.9.9,2,1.3,3.1,1.3s2.2-.4,3.1-1.3c1.7-1.7,1.7-4.5,0-6.2l-9-9h0Z" fill="#fff"/><path d="M27.5,33.8c.9.9,2,1.3,3.1,1.3s2.2-.4,3.1-1.3c1.7-1.7,1.7-4.5,0-6.2l-8-8c-1.7-1.7-4.5-1.7-6.2,0s-1.7,4.5,0,6.2l8,8h0Z" fill="#fff"/><path d="M27.5,99.8l-8,8c-1.7,1.7-1.7,4.5,0,6.2.9.9,2,1.3,3.1,1.3s2.2-.4,3.1-1.3l8-8c1.7-1.7,1.7-4.5,0-6.2s-4.5-1.7-6.2,0h0Z" fill="#fff"/><path d="M101.9,36c1.1,0,2.2-.4,3.1-1.3l9-9c1.7-1.7,1.7-4.5,0-6.2s-4.5-1.7-6.2,0l-9,9c-1.7,1.7-1.7,4.5,0,6.2.9.9,2,1.3,3.1,1.3h0Z" fill="#fff"/><path d="M66.8,21.5c2.4,0,4.4-2,4.4-4.4V4.4c0-2.4-2-4.4-4.4-4.4s-4.4,2-4.4,4.4v12.7c0,2.4,2,4.4,4.4,4.4Z" fill="#fff"/><path d="M66.8,32.8c-20.5,0-37.1,16.7-37.1,37.2s2.4,15.4,7,21.7c1.2,1.7,2.6,3.4,4.2,4.9,1.5,1.5,3,3.1,4.5,4.8h0l.2.2c.9,1.1,1.8,2.3,2.7,3.4,1,1.3,1.7,2.8,2.1,4.4.3,1.1.5,2.3.5,3.4v15c0,.8,0,1.6.2,2.4,1.1,6,6.4,10.3,12.5,10.3h6.7c7,0,12.7-5.7,12.7-12.7v-15c0-.4,0-.9,0-1.3h0c0-1,.3-1.9.6-2.8.3-.9.8-1.9,1.3-2.8.1-.2.3-.5.6-.9.9-1.2,1.9-2.5,2.9-3.6,1.4-1.7,2.9-3.4,4.5-4.9,7.2-7.1,11.2-16.5,11.2-26.6,0-20.5-16.7-37.2-37.1-37.2h0ZM70.1,131.8h-6.7c-1.4,0-2.6-.7-3.3-1.8.7,0,1.5,0,2.2,0,4.1,0,8.1-.7,11.6-2.1,0,2.1-1.8,3.8-3.9,3.8ZM74,118.2c-3,1.9-7.2,3.1-11.6,3.1s-1.9,0-2.9-.2v-3.4c5.2,0,10.2-1.1,14.5-3v3.4h0ZM86.6,90.3c-1.8,1.7-3.5,3.6-5.1,5.6-1.1,1.3-2.1,2.6-3.1,4-.1.2-.3.4-.4.6-.3.3-.6.6-.8.9-.9,1.5-2.3,2.9-4.1,4-3.7,2.3-8.5,3.6-13.7,3.6h-.1c-.1-.6-.2-1.2-.4-1.8-.7-2.7-1.9-5.2-3.6-7.4-.9-1.2-1.9-2.5-2.9-3.7,0,0,0-.1-.1-.2h0c-1.6-2.1-3.3-3.9-5.1-5.6-1.2-1.1-2.2-2.4-3.2-3.7-3.5-4.9-5.3-10.6-5.3-16.6,0-15.7,12.7-28.4,28.3-28.4s28.3,12.7,28.3,28.4-3,14.9-8.5,20.3h0Z" fill="#fff"/></g></svg>